<svg xmlns="http://www.w3.org/2000/svg" x="0px" y="0px"
width="42" height="42"
viewBox="0 0 172 172"
style=" fill:#000000;"><g transform=""><g fill="none" fill-rule="nonzero" stroke="none" stroke-width="2" stroke-linecap="butt" stroke-linejoin="miter" stroke-miterlimit="10" stroke-dasharray="" stroke-dashoffset="0" font-family="none" font-weight="none" font-size="none" text-anchor="none" style="mix-blend-mode: normal"><path d="M0,172v-172h172v172z" fill="none"></path><path d="" fill="none"></path><path d="" fill="none"></path><path d="" fill="none"></path><path d="" fill="none"></path><path d="" fill="none"></path><path d="" fill="none"></path><g fill="#f7f3ef"><path d="M39.56,13.76c-8.50862,0 -15.48,6.97138 -15.48,15.48c0,8.50862 6.97138,15.48 15.48,15.48c8.50862,0 15.48,-6.97138 15.48,-15.48c0,-8.50862 -6.97138,-15.48 -15.48,-15.48zM132.44,13.76c-8.50862,0 -15.48,6.97138 -15.48,15.48c0,8.50862 6.97138,15.48 15.48,15.48c8.50862,0 15.48,-6.97138 15.48,-15.48c0,-8.50862 -6.97138,-15.48 -15.48,-15.48zM39.56,20.64c4.7904,0 8.6,3.80961 8.6,8.6c0,4.79039 -3.8096,8.6 -8.6,8.6c-4.7904,0 -8.6,-3.80961 -8.6,-8.6c0,-4.79039 3.8096,-8.6 8.6,-8.6zM132.44,20.64c4.7904,0 8.6,3.80961 8.6,8.6c0,4.79039 -3.8096,8.6 -8.6,8.6c-4.7904,0 -8.6,-3.80961 -8.6,-8.6c0,-4.79039 3.8096,-8.6 8.6,-8.6zM29.24672,48.16c-7.52999,0 -12.47116,3.99484 -14.92906,7.8139c-2.4579,3.81907 -2.92938,7.65266 -2.92938,7.65266l0.06047,-0.31578l-7.69969,33.94312c-1.37281,5.48613 2.00888,11.14344 7.49812,12.51703c0.00671,0.00226 0.01343,0.0045 0.02016,0.00672c0.81848,0.2007 1.65393,0.30235 2.49266,0.30235c0.87024,0 1.60407,-0.28044 2.40531,-0.43672l-2.31797,9.97735c-0.23769,1.02244 0.0044,2.09745 0.65743,2.91929c0.65303,0.82184 1.64553,1.30059 2.69523,1.30008h5.6975l-5.38844,21.5739c-1.37379,5.49004 2.01658,11.14368 7.50484,12.51703c0.84304,0.21205 1.68833,0.30906 2.51281,0.30906c4.63331,0 8.84215,-3.1621 10.00422,-7.82063l0.39641,-1.59906c0.46902,5.23828 4.88158,9.41969 10.23265,9.41969c5.6587,0 10.32,-4.6613 10.32,-10.32v-24.08h6.88c1.04822,0.00004 2.03927,-0.47781 2.69201,-1.29799c0.65274,-0.82018 0.89595,-1.8932 0.66064,-2.91466l-6.47015,-28.03063l16.48781,7.4175c0.06624,0.03125 0.13346,0.06038 0.20156,0.08735c1.19039,0.44832 2.42306,0.65844 3.62813,0.65844c1.17943,0 2.32859,-0.22496 3.41985,-0.6114c0.13335,0.05788 0.27024,0.10725 0.40984,0.14781c0.97736,0.30351 2.0085,0.47031 3.05703,0.47031c1.20507,0 2.43103,-0.21682 3.62141,-0.66515c0.06802,-0.02475 0.13524,-0.05164 0.20156,-0.08063l16.49453,-7.42422l-6.47015,28.03063c-0.23531,1.02147 0.0079,2.09449 0.66064,2.91466c0.65274,0.82018 1.64379,1.29803 2.69201,1.29799h6.88v24.08c0,5.6587 4.6613,10.32 10.32,10.32c2.64393,0 5.04527,-1.04619 6.88,-2.70765c1.83473,1.66146 4.23607,2.70765 6.88,2.70765c5.6587,0 10.32,-4.6613 10.32,-10.32v-24.08h6.88c1.04852,-0.00154 2.03911,-0.48115 2.6906,-1.30271c0.65149,-0.82156 0.89276,-1.89537 0.65534,-2.91666l-2.26422,-9.74891c0.75574,0.13736 1.54309,0.20828 2.35828,0.20828c0.83873,0 1.67418,-0.10148 2.49265,-0.30235c0.00448,-0.00223 0.00896,-0.00447 0.01344,-0.00672c5.48924,-1.37359 8.87094,-7.0309 7.49812,-12.51703l-7.69297,-33.94312l0.05375,0.31578c0,0 -0.47148,-3.83359 -2.92937,-7.65266c-2.45789,-3.81892 -7.39236,-7.8139 -14.92235,-7.8139h-19.35c-5.73333,0 -9.97167,1.55077 -12.87313,4.06485c-2.90145,2.51407 -4.3349,5.64654 -5.54969,8.26406c-1.5576,3.35684 -5.17795,11.59755 -5.84531,13.115l-13.14187,6.07375l-13.14187,-6.07375c-0.66844,-1.5197 -4.28798,-9.75874 -5.84531,-13.115c-1.21478,-2.61752 -2.64824,-5.74999 -5.54969,-8.26406c-2.90146,-2.51407 -7.13307,-4.06485 -12.86641,-4.06485zM29.24672,55.04h19.35c4.58667,0 6.79602,1.02579 8.36485,2.38515c1.56883,1.35937 2.62319,3.4033 3.80953,5.95953c1.58222,3.4099 6.32234,14.18328 6.32234,14.18328c0.33879,0.76635 0.9456,1.38272 1.70656,1.73344l14.73422,6.81953c0.0772,0.03423 0.15564,0.06561 0.23515,0.09406c1.81451,0.68088 2.69141,2.61586 2.01563,4.42765c-0.53552,1.41922 -1.84008,2.23735 -3.225,2.23735c-0.39367,0 -0.79449,-0.07483 -1.18922,-0.22172h-0.01344l-16.99844,-7.65265c-0.06845,-0.03139 -0.13791,-0.06052 -0.20828,-0.08735c-0.79084,-0.29615 -1.43376,-0.86811 -1.8275,-1.6125l-4.15891,-9.05688c-0.74045,-1.59464 -2.56409,-2.37441 -4.22855,-1.80808c-1.66445,0.56633 -2.63409,2.29651 -2.24833,4.01183l9.34578,40.50735h-5.41531c-0.37149,-0.0614 -0.75054,-0.0614 -1.12203,0h-12.685c-0.19315,-0.03228 -0.3887,-0.04802 -0.58453,-0.04703c-0.16665,0.00361 -0.33282,0.01933 -0.49719,0.04703h-19.19547l3.81625,-16.44078l5.59,-24.05985c0.32086,-1.21211 -0.04312,-2.50279 -0.94999,-3.36866c-0.90687,-0.86587 -2.213,-1.16981 -3.40897,-0.79326c-1.19598,0.37655 -2.09239,1.37394 -2.33963,2.60318l-5.53625,23.8314c-0.02066,0.07773 -0.03859,0.15617 -0.05375,0.23515l-0.00672,0.01344c-0.30912,1.31994 -0.85831,2.40594 -1.54531,3.07719c-0.69,0.67417 -1.50532,1.14219 -3.33922,1.14219c-0.26687,0 -0.54625,-0.0344 -0.84656,-0.1075h-0.00672c-1.86954,-0.47646 -2.95564,-2.28855 -2.48594,-4.16563c0.00699,-0.02456 0.01371,-0.0492 0.02016,-0.0739l7.71313,-34.02375c0.02507,-0.10426 0.04524,-0.20964 0.06047,-0.31578c0,0 0.33311,-2.40141 1.88797,-4.81734c1.55486,-2.41594 3.84301,-4.6561 9.14422,-4.6561zM123.41,55.04h19.35c5.30121,0 7.58264,2.24016 9.1375,4.6561c1.55486,2.41593 1.89469,4.81734 1.89469,4.81734c0.013,0.10604 0.03094,0.21141 0.05375,0.31578l7.71313,34.02375c0.00644,0.02471 0.01316,0.04935 0.02015,0.0739c0.46971,1.87707 -0.60969,3.68917 -2.47922,4.16563h-0.00672c-0.30031,0.07314 -0.5797,0.1075 -0.84656,0.1075c-1.8339,0 -2.65593,-0.46802 -3.34594,-1.14219c-0.69001,-0.67417 -1.23693,-1.76289 -1.54531,-3.09063c-0.02123,-0.11326 -0.04814,-0.22538 -0.08062,-0.33594l-5.50938,-23.73062c-0.35533,-1.63803 -1.83941,-2.78159 -3.5139,-2.70766c-1.03045,0.04622 -1.98579,0.55235 -2.6028,1.37894c-0.61701,0.82659 -0.83059,1.88641 -0.58189,2.88747l5.57656,23.99938c-0.00002,0.00672 -0.00002,0.01344 0,0.02015c0.0044,0.01347 0.00887,0.0269 0.01344,0.04031l3.81625,16.44078h-5.41531c-0.3693,-0.06066 -0.74602,-0.06066 -1.11531,0h-12.64469c-0.09356,-0.01508 -0.1877,-0.02629 -0.28219,-0.0336c-0.11393,-0.01017 -0.22829,-0.01466 -0.34266,-0.01344c-0.11448,0.00101 -0.22884,0.00774 -0.34265,0.02016c-0.05171,0.00778 -0.10323,0.01674 -0.15453,0.02687h-12.67828c-0.19315,-0.03228 -0.3887,-0.04802 -0.58453,-0.04703c-0.16665,0.00361 -0.33282,0.01933 -0.49719,0.04703h-5.44891l9.34578,-40.50735c0.38576,-1.71532 -0.58387,-3.4455 -2.24833,-4.01183c-1.66445,-0.56633 -3.4881,0.21344 -4.22855,1.80808l-4.14547,9.04344c-0.39283,0.75292 -1.04394,1.3275 -1.84094,1.62594c-0.0681,0.02696 -0.13532,0.05609 -0.20156,0.08735l-15.0836,6.79265c0.57887,-2.47228 0.20672,-4.98863 -0.92719,-7.14203l11.56297,-5.35485c0.76096,-0.35072 1.36778,-0.96709 1.70656,-1.73344c0,0 4.74012,-10.77338 6.32234,-14.18328c1.18634,-2.55623 2.24742,-4.60016 3.81625,-5.95953c1.56883,-1.35937 3.77818,-2.38515 8.36485,-2.38515zM29.9925,123.84h7.095l-6.22828,24.91313c-0.39969,1.60227 -1.80133,2.60687 -3.3325,2.60687c-0.2832,0 -0.55472,-0.03061 -0.83312,-0.10078h-0.00672c-1.88022,-0.47048 -2.97614,-2.2939 -2.50609,-4.17235zM44.72,123.84h6.88v24.08c0,1.9437 -1.4963,3.44 -3.44,3.44c-1.9437,0 -3.44,-1.4963 -3.44,-3.44zM120.40672,123.84h6.88v24.08c0,1.9437 -1.4963,3.44 -3.44,3.44c-1.9437,0 -3.44,-1.4963 -3.44,-3.44zM134.16672,123.84h6.88v24.08c0,1.9437 -1.4963,3.44 -3.44,3.44c-1.9437,0 -3.44,-1.4963 -3.44,-3.44z"></path></g></g></g></svg>
